# xmcd
#
# Track frame offsets:
# 150
# 15442
# 33836
# 52046
# 67813
# 89614
# 108201
# 127751
# 150870
# 167500
# 189058
# 206537
#
# Disc length: 2909 seconds
#
#
# Revision: 0
# Processed by: cddbd v1.5.1PL2 Copyright (c) Steve Scherf et al.
# Submitted via: FreeRIP 2.942 
#
DISCID=7f0b5b0c
DTITLE=Chris Cagle - Pickin' On Chris Cagle
DYEAR=2005
DGENRE=Bluegrass
TTITLE0=My Love Goes On And On
TTITLE1=I Breathe In, I Breathe Out
TTITLE2=Country By The Grace Of God
TTITLE3=What A Beautiful Day
TTITLE4=I Love It When She Does That
TTITLE5=Chicks Dig It
TTITLE6=Laredo
TTITLE7=Miss Me Baby
TTITLE8=You Might Want To Think About It
TTITLE9=Wanted Dead Or Alive
TTITLE10=Anywhere But Here
TTITLE11=Flat Seven And Push (Original Composition)
EXTD=
EXTT0=
EXTT1=
EXTT2=
EXTT3=
EXTT4=
EXTT5=
EXTT6=
EXTT7=
EXTT8=
EXTT9=
EXTT10=
EXTT11=
PLAYORDER=
